<svg width="134" height="24" viewBox="0 0 134 24" fill="none" xmlns="http://www.w3.org/2000/svg">
<path fill-rule="evenodd" clip-rule="evenodd" d="M3.58849 8.50842C3.96576 6.77073 4.40591 4.74934 6.98391 4.74934H17.3588C21.163 4.74934 20.6599 7.12536 20.3455 8.50842L18.9622 14.8918H7.95853L7.54982 16.8422C7.26687 18.1189 8.0214 18.8991 9.43616 18.8991H18.0819L17.1073 23.4029H4.31159C0.413139 23.4029 0.758969 21.807 1.23056 19.6083L3.58849 8.50842ZM10.0005 10.9672H15.5823L15.9567 9.23565C16.0588 8.72405 16.229 7.85828 15.1739 7.85828H11.8044C10.9195 7.85828 10.5791 8.48793 10.409 9.15694L10.0005 10.9672ZM37.1492 4.74934H26.5222C23.2677 4.74934 22.8027 6.73905 22.4042 8.58663C22.0057 10.4342 22.6035 12.1397 24.7289 13.7386C26.8543 15.3374 29.1789 16.4033 28.7804 17.8601C28.6144 18.4641 27.917 18.8905 26.489 18.8905H20.0795L19.0501 23.4028H29.6107C31.6697 23.4028 34.2268 23.4384 35.4555 21.3776C36.6843 19.2813 36.319 17.6114 35.2231 15.9059C34.1272 14.1649 31.9685 13.0635 30.3745 11.3935C29.4446 10.3987 29.4778 8.62216 31.0055 8.62216H36.2858L37.1492 4.74934ZM38.0059 4.8834H41.3995L42.4868 0.085968H48.648L47.5607 4.8834H50.7237C50.4271 6.15331 50.1636 7.42321 49.867 8.69312H46.7041L44.7602 17.3708C44.3977 18.9582 44.859 19.5932 46.737 19.5932L45.8804 23.4029H41.3666C37.2481 23.4029 37.9071 20.3692 38.2366 18.9229L40.5429 8.69312H37.1493L38.0059 4.8834ZM52.2937 8.48624L53.141 4.74934H66.1432C69.3042 4.74934 68.9131 7.24061 68.6524 8.48624L66.2084 19.1779C65.5567 21.9806 66.3714 22.1882 66.8927 22.9148H61.0922C60.4405 22.9148 59.5932 22.3958 59.3 22.0844C57.9313 22.5342 57.8335 23.4684 54.9985 23.3992C52.1308 23.33 48.9699 20.6312 49.2306 17.0327C49.4912 13.3996 52.4893 11.2197 55.1614 11.2197H61.7766L62.1676 9.55887C62.3957 8.48624 61.6136 8.48624 61.1574 8.48624H52.2937ZM61.2815 15.6306H57.6806C56.2168 15.6306 54.1968 17.6374 55.8948 19.6442C57.5928 21.651 60.6667 18.6408 61.2815 15.6306ZM83.9054 0.085968H78.1095C76.6276 0.085968 74.7175 0.085968 73.9601 3.47239L73.6308 4.8834H71.0621L70.2059 8.69312H72.8075L69.8107 21.9919C69.679 22.5563 69.4814 22.9443 68.8228 23.4029H73.532C75.1127 23.4029 75.9689 21.8155 76.4629 19.5932L78.9328 8.69312H81.9625L82.8187 4.8834H79.7561L79.9537 4.07207C80.0854 3.47239 80.5464 3.04909 81.3697 3.04909L83.2139 3.08436L83.9054 0.085968ZM85.0891 8.50842C85.4651 6.77073 85.9039 4.74934 88.4736 4.74934H98.8154C102.607 4.74934 102.106 7.12536 101.793 8.50842L100.414 14.8918H89.4451L89.0377 16.8422C88.7557 18.1189 89.5078 18.8991 90.9181 18.8991H99.5362L98.5647 23.4029H85.7472C81.8612 23.4029 82.2059 21.807 82.676 19.6083L85.0891 8.50842ZM88.4302 10.9672H94.012L94.3864 9.23565C94.4885 8.72405 94.6587 7.85828 93.6036 7.85828H90.2341C89.3492 7.85828 89.0088 8.48793 88.8387 9.15694L88.4302 10.9672ZM102.861 4.8834H106.255L107.342 0.085968H113.503L112.416 4.8834H115.579C115.282 6.15331 115.019 7.42321 114.722 8.69312H111.559L109.615 17.3708C109.253 18.9582 109.714 19.5932 111.592 19.5932L110.736 23.4029H106.222C102.103 23.4029 102.762 20.3692 103.092 18.9229L105.398 8.69312H102.005L102.861 4.8834ZM117.149 8.48624L117.996 4.74934H130.999C134.16 4.74934 133.768 7.24061 133.508 8.48624L131.064 19.1779C130.412 21.9806 131.227 22.1882 131.748 22.9148H125.948C125.296 22.9148 124.449 22.3958 124.155 22.0844C122.787 22.5342 122.689 23.4684 119.854 23.3992C117.019 23.33 113.825 20.6312 114.086 17.0327C114.346 13.3996 117.344 11.2197 120.017 11.2197H126.632L127.023 9.55887C127.251 8.48624 126.469 8.48624 126.013 8.48624H117.149ZM124.629 15.6306H121.028C119.564 15.6306 117.544 17.6374 119.242 19.6442C120.94 21.651 124.014 18.6408 124.629 15.6306Z" fill="white"/>
</svg>
