<svg width="20" height="20" viewBox="0 0 20 20" fill="none" xmlns="http://www.w3.org/2000/svg">
<path fill-rule="evenodd" clip-rule="evenodd" d="M8.00001 1.65001C4.493 1.65001 1.65001 4.493 1.65001 8.00001C1.65001 11.507 4.493 14.35 8.00001 14.35C11.507 14.35 14.35 11.507 14.35 8.00001C14.35 4.493 11.507 1.65001 8.00001 1.65001ZM0.350006 8.00001C0.350006 3.77503 3.77503 0.350006 8.00001 0.350006C12.225 0.350006 15.65 3.77503 15.65 8.00001C15.65 9.87848 14.9729 11.5988 13.8496 12.9303L19.4596 18.5404C19.7135 18.7942 19.7135 19.2058 19.4596 19.4596C19.2058 19.7135 18.7942 19.7135 18.5404 19.4596L12.9303 13.8496C11.5988 14.9729 9.87848 15.65 8.00001 15.65C3.77503 15.65 0.350006 12.225 0.350006 8.00001Z" fill="#233362" fill-opacity="0.5"/>
</svg>
